<svg
  xmlns="http://www.w3.org/2000/svg"
  xmlns:xlink="http://www.w3.org/1999/xlink" width="88" height="24">
  <defs/>
  <defs>
    <path id="a" d="M37.6870117 19.2226562c2.9965821 0 4.9448242-1.5493164 4.9448242-4.0263671 0-1.8925782-1.1040039-3.0058594-3.8964843-3.6181641l-1.484375-.324707c-1.8276368-.3989258-2.5419922-1.1225586-2.5419922-2.18017581 0-1.36376953 1.2895508-2.18017578 2.9594726-2.18017578 1.4472657 0 2.5512696.59375 3.0151368 1.94824218.1484374.42675782.4082031.64941407.8349609.64941407.4453125 0 .7607422-.296875.7607422-.75146485 0-.17626953-.0185547-.31542969-.0463867-.41748047-.4824219-1.80908203-2.2822266-2.93164062-4.5180664-2.93164062-2.7739258 0-4.722168 1.5493164-4.722168 3.75732422 0 1.90185546 1.159668 3.11718746 3.8408203 3.70166016l1.484375.324707c1.8554687.4082031 2.5976562 1.1503907 2.5976562 2.2729492 0 1.3173829-1.3173828 2.2729493-3.1357421 2.2729493-1.6884766 0-3.0058594-.6494141-3.4140625-2.0317383-.1298829-.4453125-.3896485-.6586914-.8071289-.6586914-.4731446 0-.7700196.3339843-.7700196.8627929 0 .1948243.0371094.3989258.0927735.5844727.5009765 1.6142578 2.2915039 2.7460937 4.805664 2.7460937zm13.7954102-.055664c.4731445 0 .8071289-.3525391.8071289-.862793V12.737793c0-2.1894532-1.2246094-3.55322269-3.3398438-3.55322269-1.4936523 0-2.5234375.66796875-3.0615234 1.70703129h-.0371094v-.890625c0-.48242191-.3154297-.81640629-.7607422-.81640629-.4453125 0-.7607422.33398438-.7607422.81640629v8.3032226c0 .5102539.3339844.862793.807129.862793.4731445 0 .8071289-.3525391.8071289-.862793v-4.9819336c0-1.6328125.9926757-2.7089844 2.5141601-2.7089844 1.484375 0 2.2172852.8535157 2.2172852 2.4121094v5.2788086c0 .5102539.3339843.862793.8071289.862793zm9.5834961 0c.4453125 0 .7607422-.3339844.7607422-.8164063v-6.0209961c0-1.9204101-1.428711-3.14501949-3.6923829-3.14501949-1.5678711 0-2.9780273.69580078-3.5253906 1.75341799-.1298828.2319336-.1948242.4638672-.1948242.6679687 0 .4360352.296875.7236328.7143555.7236328.3061523 0 .5195312-.1206054.6679687-.3896484.538086-.9555664 1.2524414-1.3359375 2.3007813-1.3359375 1.3359375 0 2.1152343.7050781 2.1152343 1.8833008v.8071289l-2.7739257.1577148c-2.2265625.1298828-3.4975586 1.1689454-3.4975586 2.8203125 0 1.7348633 1.2895508 2.8945313 3.2099609 2.8945313 1.2988281 0 2.5327149-.7236328 3.1079102-1.8276367h.0371093v1.0112304c0 .4824219.3154297.8164063.7700196.8164063zm-3.5532227-1.3730469c-1.159668 0-1.9296875-.6030273-1.9296875-1.5214844 0-.9091797.7421875-1.484375 2.0410156-1.5678711l2.5883789-.1577148v.7885742c0 1.3916016-1.1782226 2.4584961-2.699707 2.4584961zm9.3237305 1.2802735c.8999023 0 1.1782226-.2597657 1.1782226-.7514649 0-.3803711-.2412109-.59375-.7700195-.6308594l-.1391601-.0092773c-.807129-.0556641-1.0947266-.4453125-1.0947266-1.2617188v-5.7426757h1.243164c.4638672 0 .7236329-.241211.7236329-.6679688 0-.41748046-.2597657-.6586914-.7236329-.6586914h-1.243164V7.70019531c0-.5102539-.3339844-.86279297-.8071289-.86279297s-.8071289.35253907-.8071289.86279297V9.3515625h-.8071289c-.4638672 0-.7236328.24121094-.7236328.6586914 0 .4267578.2597656.6679688.7236328.6679688h.8071289v6.0952148c0 1.5400391.7792968 2.3007813 2.3378906 2.3007813h.1020508zm6.4663086.0927734c1.7534179 0 3.2841797-.9648438 3.7480468-2.3007813.0463868-.1484375.0742188-.2875976.0742188-.4082031 0-.4174805-.2783203-.7050781-.6958008-.7050781-.352539 0-.5288086.1298828-.7607422.565918-.5009765.9277343-1.2060547 1.4287109-2.3657226 1.4287109-1.6606446 0-2.8110352-1.3544922-2.8110352-3.5717774 0-2.161621 1.131836-3.5717773 2.8110352-3.5717773 1.1132812 0 1.8461914.4731445 2.3564453 1.4287109.2226562.4174805.4174805.565918.7700195.565918.4174805 0 .6865235-.2783203.6865235-.7050781 0-.1020508-.0185547-.2226563-.0556641-.3432617-.3710938-1.3359375-1.9575195-2.36572269-3.7758789-2.36572269-2.671875 0-4.4345703 1.97607419-4.4345703 5.00976559 0 3.0522461 1.78125 4.9726563 4.453125 4.9726563zm12.9233398 0c.4731446 0 .8071289-.3525391.8071289-.862793V12.765625c0-2.1523438-1.2802734-3.58105469-3.3955078-3.58105469-1.4658203 0-2.5234375.63085938-3.0615234 1.70703129h-.0371094V6.29003906c0-.50097656-.3154297-.84423828-.8071289-.84423828-.4824219 0-.8071289.34326172-.8071289.84423828V18.3041992c0 .5102539.3339844.862793.8071289.862793s.8071289-.3525391.8071289-.862793v-4.9262695c0-1.6699219.9926758-2.7646485 2.5976563-2.7646485 1.512207 0 2.2822265.9184571 2.2822265 2.4492188v5.2416992c0 .5102539.3339844.862793.8071289.862793z"/>
  </defs>
  <g fill="none" fill-rule="nonzero">
    <g>
      <circle cx="12" cy="12" r="12" fill="#5826F2" transform="rotate(90 12 12)"/>
      <path fill="#FFF" d="M7 17.6818182l5-3.7037037 5 3.7037037V7.7996633c0-.81819963-.6395932-1.48148148-1.4285714-1.48148148H8.4285714C7.6395932 6.31818182 7 6.98146367 7 7.7996633v9.8821549z"/>
    </g>
    <g>
      <use fill="#FF1616" xlink:href="#a"/>
      <use fill="#656170" xlink:href="#a"/>
    </g>
  </g>
</svg>